<svg xmlns="http://www.w3.org/2000/svg" xmlns:xlink="http://www.w3.org/1999/xlink" width="64" zoomAndPan="magnify" viewBox="0 0 187.5 187.499992" height="64" preserveAspectRatio="xMidYMid meet" version="1.0"><defs><clipPath id="dbbfa54f0b"><path d="M 0.746094 4.921875 L 186.253906 4.921875 L 186.253906 182.199219 L 0.746094 182.199219 Z M 0.746094 4.921875 " clip-rule="nonzero"/></clipPath></defs><g clip-path="url(#dbbfa54f0b)"><path fill="#12100b" d="M 35.65625 43.164062 C 35.214844 43.539062 34.683594 43.71875 34.152344 43.71875 C 33.507812 43.71875 32.851562 43.445312 32.414062 42.910156 L 30.734375 40.953125 C 29.902344 39.984375 30.015625 38.527344 30.984375 37.699219 C 31.957031 36.867188 33.417969 36.980469 34.246094 37.953125 L 35.910156 39.90625 C 36.738281 40.878906 36.628906 42.335938 35.660156 43.164062 Z M 70.839844 66.640625 C 70.007812 65.667969 70.121094 64.210938 71.089844 63.382812 C 72.0625 62.554688 73.503906 62.667969 74.335938 63.636719 L 76.011719 65.589844 C 76.84375 66.558594 76.730469 68.019531 75.761719 68.84375 C 75.324219 69.21875 74.789062 69.398438 74.257812 69.398438 C 73.617188 69.398438 72.957031 69.125 72.503906 68.589844 L 70.84375 66.636719 Z M 46.410156 63.378906 C 45.582031 62.414062 45.691406 60.953125 46.660156 60.121094 C 47.632812 59.289062 49.09375 59.40625 49.921875 60.375 L 51.601562 62.332031 C 52.414062 63.296875 52.304688 64.761719 51.335938 65.589844 C 50.910156 65.960938 50.378906 66.144531 49.847656 66.144531 C 49.1875 66.144531 48.546875 65.871094 48.09375 65.335938 L 46.414062 63.378906 Z M 31.199219 57.972656 C 32.03125 58.945312 31.90625 60.402344 30.949219 61.230469 C 30.511719 61.605469 29.976562 61.785156 29.445312 61.785156 C 28.804688 61.785156 28.144531 61.511719 27.691406 60.976562 L 26.015625 59.019531 C 25.199219 58.054688 25.3125 56.59375 26.28125 55.765625 C 27.238281 54.933594 28.695312 55.046875 29.527344 56.019531 L 31.203125 57.972656 Z M 61.761719 49.246094 C 60.929688 48.277344 61.039062 46.820312 62.011719 45.988281 C 62.984375 45.164062 64.441406 45.273438 65.257812 46.246094 L 66.933594 48.199219 C 67.765625 49.167969 67.652344 50.628906 66.683594 51.457031 C 66.246094 51.828125 65.710938 52.011719 65.179688 52.011719 C 64.539062 52.011719 63.894531 51.738281 63.425781 51.203125 L 61.765625 49.246094 Z M 51.269531 39.605469 L 52.945312 41.5625 C 53.777344 42.53125 53.667969 43.992188 52.695312 44.820312 C 52.257812 45.191406 51.722656 45.375 51.191406 45.375 C 50.550781 45.375 49.890625 45.101562 49.4375 44.566406 L 47.777344 42.609375 C 46.945312 41.640625 47.058594 40.179688 48.027344 39.351562 C 48.984375 38.523438 50.441406 38.636719 51.273438 39.605469 Z M 64.191406 34.839844 C 63.359375 33.871094 63.472656 32.417969 64.441406 31.585938 C 65.414062 30.753906 66.871094 30.867188 67.6875 31.839844 L 69.367188 33.792969 C 70.195312 34.761719 70.085938 36.222656 69.117188 37.050781 C 68.675781 37.425781 68.140625 37.605469 67.609375 37.605469 C 66.96875 37.605469 66.328125 37.332031 65.855469 36.796875 L 64.195312 34.839844 Z M 46.472656 19.039062 C 45.640625 18.070312 45.753906 16.613281 46.722656 15.78125 C 47.695312 14.949219 49.152344 15.066406 49.984375 16.035156 L 51.660156 17.992188 C 52.476562 18.957031 52.367188 20.417969 51.398438 21.25 C 50.972656 21.621094 50.4375 21.800781 49.90625 21.800781 C 49.25 21.800781 48.609375 21.53125 48.152344 20.996094 L 46.476562 19.039062 Z M 5.660156 177.574219 C 6.679688 173.648438 10.253906 170.738281 14.503906 170.738281 L 172.417969 170.738281 C 176.652344 170.738281 180.226562 173.648438 181.261719 177.574219 Z M 30.667969 155.855469 C 31.5 155.855469 32.316406 155.941406 33.132812 156.101562 C 34.121094 156.304688 35.140625 155.824219 35.625 154.925781 C 39.855469 146.949219 48.089844 141.996094 57.105469 141.996094 C 67.46875 141.996094 76.707031 148.582031 80.074219 158.390625 C 80.292969 159.027344 80.792969 159.535156 81.425781 159.785156 C 82.050781 160.03125 82.757812 159.996094 83.351562 159.675781 C 84.515625 159.054688 85.816406 158.730469 87.128906 158.730469 C 91.363281 158.730469 94.84375 161.988281 95.203125 166.121094 L 18.515625 166.121094 C 19.507812 160.300781 24.570312 155.855469 30.667969 155.855469 Z M 47.195312 98.289062 L 47.445312 77.875 C 48.777344 78.117188 50.128906 78.238281 51.507812 78.238281 C 52.890625 78.238281 54.21875 78.117188 55.554688 77.878906 L 55.804688 98.289062 C 55.976562 112.664062 56.953125 125.5 58.765625 137.425781 C 58.21875 137.398438 57.65625 137.378906 57.105469 137.378906 C 52.339844 137.378906 47.761719 138.539062 43.714844 140.65625 C 45.859375 127.847656 47.007812 113.929688 47.195312 98.289062 Z M 35.042969 87.660156 C 36.375 91.046875 39.214844 93.632812 42.617188 94.710938 L 42.835938 76.546875 C 40.269531 75.5 37.867188 73.988281 35.796875 72.046875 C 34.855469 71.179688 34.808594 69.714844 35.6875 68.785156 C 36.546875 67.851562 38.003906 67.796875 38.949219 68.667969 C 42.363281 71.859375 46.820312 73.621094 51.507812 73.621094 C 56.199219 73.621094 60.648438 71.859375 64.066406 68.667969 C 65.011719 67.796875 66.46875 67.847656 67.332031 68.785156 C 68.207031 69.714844 68.160156 71.179688 67.21875 72.046875 C 65.132812 73.996094 62.734375 75.511719 60.148438 76.558594 L 60.382812 95.246094 C 60.601562 95.257812 60.820312 95.265625 61.054688 95.265625 C 65.761719 95.265625 70.054688 92.492188 71.984375 88.191406 C 72.878906 86.199219 74.351562 84.75 76.34375 83.878906 C 80.734375 81.96875 83.554688 77.648438 83.554688 72.875 C 83.554688 71.488281 83.320312 70.121094 82.851562 68.828125 C 81.675781 65.535156 82.535156 62.023438 85.109375 59.664062 C 87.589844 57.398438 89 54.175781 89 50.820312 C 89 45.867188 86.039062 41.488281 81.425781 39.664062 C 78.085938 38.335938 75.96875 35.144531 76.0625 31.542969 L 76.0625 31.257812 C 76.0625 25.578125 72.015625 20.675781 66.46875 19.589844 C 63.976562 19.105469 62 17.6875 60.730469 15.488281 C 58.597656 11.820312 54.664062 9.542969 50.425781 9.542969 C 46.191406 9.542969 42.210938 11.847656 40.09375 15.558594 C 38.886719 17.699219 36.976562 19.117188 34.574219 19.660156 C 29.210938 20.867188 25.308594 25.746094 25.308594 31.257812 C 25.308594 31.484375 25.324219 31.707031 25.335938 31.929688 C 25.527344 35.402344 23.707031 38.519531 20.585938 40.054688 C 16.449219 42.089844 13.878906 46.21875 13.878906 50.824219 C 13.878906 54.546875 15.570312 58 18.515625 60.296875 C 21.136719 62.339844 22.296875 65.507812 21.621094 68.765625 C 21.449219 69.570312 21.355469 70.40625 21.355469 71.234375 C 21.355469 76.484375 24.710938 81.074219 29.710938 82.667969 C 32.1875 83.460938 34.085938 85.242188 35.042969 87.671875 Z M 111.976562 79.132812 L 92.925781 46.066406 C 93.382812 47.578125 93.617188 49.171875 93.617188 50.8125 C 93.617188 55.457031 91.65625 59.921875 88.222656 63.058594 C 87.03125 64.15625 86.636719 65.726562 87.1875 67.253906 C 87.847656 69.054688 88.160156 70.945312 88.160156 72.867188 C 88.160156 79.480469 84.257812 85.464844 78.191406 88.105469 C 77.246094 88.515625 76.621094 89.144531 76.199219 90.082031 C 75.253906 92.183594 73.894531 94.019531 72.261719 95.515625 L 77.65625 94.246094 C 78.546875 94.035156 79.492188 94.375 80.039062 95.117188 C 80.589844 95.855469 80.652344 96.847656 80.183594 97.644531 L 71.875 112.085938 L 91.394531 107.492188 C 91.738281 107.410156 92.097656 107.410156 92.457031 107.492188 L 111.976562 112.085938 L 103.667969 97.644531 C 103.199219 96.847656 103.261719 95.855469 103.808594 95.117188 C 104.359375 94.375 105.300781 94.035156 106.191406 94.246094 L 111.976562 95.605469 L 103.667969 81.167969 C 103.199219 80.371094 103.261719 79.375 103.808594 78.636719 C 104.359375 77.894531 105.300781 77.554688 106.191406 77.765625 L 111.976562 79.128906 Z M 63.550781 138.105469 C 69.035156 139.359375 74.003906 142.191406 77.878906 146.183594 C 81.421875 137.839844 83.414062 126.699219 83.414062 114.96875 L 83.414062 114.125 L 67.734375 117.808594 C 66.84375 118.019531 65.898438 117.679688 65.351562 116.941406 C 64.808594 116.199219 64.742188 115.207031 65.210938 114.410156 L 73.519531 99.96875 L 67.734375 101.332031 C 66.84375 101.542969 65.898438 101.203125 65.351562 100.464844 C 65.132812 100.152344 64.992188 99.792969 64.929688 99.421875 C 63.675781 99.726562 62.375 99.890625 61.054688 99.890625 C 60.851562 99.890625 60.648438 99.882812 60.445312 99.875 C 60.664062 113.917969 61.683594 126.464844 63.550781 138.109375 Z M 100.765625 145.554688 C 97.570312 136.945312 95.828125 126.085938 95.828125 114.964844 L 95.828125 113.035156 L 91.921875 112.121094 L 88.035156 113.035156 L 88.035156 114.964844 C 88.035156 128.332031 85.527344 141.0625 81.121094 150.195312 C 82.042969 151.582031 82.875 153.0625 83.550781 154.621094 C 84.714844 154.28125 85.917969 154.105469 87.125 154.105469 C 93.902344 154.105469 99.46875 159.429688 99.839844 166.113281 L 108.351562 166.113281 C 108.933594 164.25 109.859375 162.550781 111.050781 161.089844 C 106.988281 158.152344 103.460938 152.855469 100.761719 145.550781 Z M 126.730469 161.011719 C 127.636719 161.386719 128.671875 161.160156 129.335938 160.441406 C 133.441406 155.953125 139.585938 153.375 146.203125 153.375 C 155.644531 153.375 163.765625 158.59375 166.617188 166.117188 L 113.296875 166.117188 C 114.988281 162.570312 118.597656 160.199219 122.703125 160.199219 C 124.097656 160.199219 125.460938 160.472656 126.730469 161.011719 Z M 142.914062 124.652344 L 146.832031 123.730469 L 150.769531 124.652344 C 151.003906 133.832031 152.398438 142.613281 154.796875 150.039062 C 152.101562 149.207031 149.214844 148.757812 146.207031 148.757812 C 143.730469 148.757812 141.3125 149.074219 138.992188 149.65625 C 141.3125 142.308594 142.679688 133.65625 142.914062 124.652344 Z M 136.625 110.738281 C 137.078125 109.941406 137.03125 108.949219 136.480469 108.203125 C 135.933594 107.464844 134.992188 107.121094 134.097656 107.335938 L 129.535156 108.410156 L 136.621094 96.09375 C 137.074219 95.296875 137.027344 94.300781 136.476562 93.558594 C 135.929688 92.820312 134.988281 92.480469 134.09375 92.691406 L 129.53125 93.765625 L 146.820312 63.726562 L 164.132812 93.765625 L 159.570312 92.691406 C 158.679688 92.480469 157.734375 92.820312 157.1875 93.558594 C 156.636719 94.300781 156.574219 95.292969 157.027344 96.09375 L 164.128906 108.410156 L 159.566406 107.335938 C 158.675781 107.121094 157.730469 107.464844 157.183594 108.203125 C 156.632812 108.945312 156.570312 109.941406 157.023438 110.738281 L 164.125 123.054688 L 147.347656 119.109375 C 147.175781 119.070312 147.003906 119.050781 146.816406 119.050781 C 146.640625 119.050781 146.46875 119.070312 146.296875 119.109375 L 129.519531 123.054688 L 136.605469 110.738281 Z M 172.417969 166.117188 L 171.476562 166.117188 C 169.847656 160.441406 165.894531 155.695312 160.644531 152.605469 C 157.617188 145.1875 155.785156 135.777344 155.425781 125.746094 L 168.28125 128.769531 C 168.453125 128.8125 168.625 128.832031 168.796875 128.832031 C 169.515625 128.832031 170.207031 128.492188 170.660156 127.898438 C 171.210938 127.160156 171.257812 126.167969 170.804688 125.371094 L 163.703125 113.050781 L 168.28125 114.125 C 169.171875 114.335938 170.113281 113.996094 170.664062 113.253906 C 171.214844 112.515625 171.261719 111.523438 170.808594 110.726562 L 163.707031 98.40625 L 168.285156 99.480469 C 169.175781 99.691406 170.117188 99.351562 170.667969 98.609375 C 171.21875 97.871094 171.265625 96.878906 170.8125 96.082031 L 148.84375 57.949219 C 148.4375 57.234375 147.667969 56.796875 146.835938 56.796875 C 146.007812 56.796875 145.253906 57.238281 144.84375 57.949219 L 122.878906 96.082031 C 122.410156 96.878906 122.472656 97.875 123.023438 98.609375 C 123.570312 99.351562 124.511719 99.691406 125.402344 99.480469 L 129.964844 98.40625 L 122.878906 110.726562 C 122.410156 111.523438 122.472656 112.515625 123.023438 113.253906 C 123.570312 113.996094 124.511719 114.335938 125.402344 114.125 L 129.964844 113.050781 L 122.878906 125.371094 C 122.410156 126.167969 122.472656 127.160156 123.023438 127.898438 C 123.570312 128.636719 124.511719 128.980469 125.402344 128.769531 L 138.257812 125.746094 C 137.898438 135.363281 136.203125 144.460938 133.367188 151.738281 C 131.03125 152.910156 128.878906 154.414062 127.015625 156.207031 C 125.617188 155.789062 124.175781 155.578125 122.703125 155.578125 C 119.753906 155.578125 116.976562 156.429688 114.628906 157.914062 C 111.023438 155.78125 107.664062 150.894531 105.09375 143.949219 C 102.082031 135.84375 100.441406 125.550781 100.441406 114.964844 L 100.441406 114.121094 L 116.121094 117.804688 C 116.292969 117.847656 116.464844 117.867188 116.65625 117.867188 C 117.359375 117.867188 118.066406 117.527344 118.503906 116.9375 C 119.054688 116.195312 119.101562 115.203125 118.648438 114.40625 L 110.339844 99.964844 L 116.125 101.328125 C 117.015625 101.539062 117.960938 101.199219 118.507812 100.460938 C 119.058594 99.71875 119.105469 98.726562 118.652344 97.925781 L 110.34375 83.488281 L 116.128906 84.847656 C 117.019531 85.058594 117.964844 84.71875 118.511719 83.980469 C 119.0625 83.238281 119.109375 82.246094 118.65625 81.445312 L 93.945312 38.539062 C 93.523438 37.824219 92.769531 37.382812 91.9375 37.382812 C 91.109375 37.382812 90.355469 37.824219 89.945312 38.539062 L 89.320312 39.613281 C 87.65625 37.785156 85.558594 36.320312 83.140625 35.359375 C 81.570312 34.742188 80.632812 33.316406 80.679688 31.636719 L 80.679688 31.246094 C 80.679688 23.363281 75.082031 16.546875 67.351562 15.042969 C 66.175781 14.8125 65.328125 14.199219 64.734375 13.167969 C 61.785156 8.074219 56.3125 4.914062 50.433594 4.914062 C 44.558594 4.914062 39.019531 8.113281 36.089844 13.269531 C 35.523438 14.277344 34.695312 14.886719 33.566406 15.144531 C 25.992188 16.847656 20.710938 23.46875 20.710938 31.246094 C 20.710938 31.558594 20.710938 31.867188 20.742188 32.175781 C 20.816406 33.792969 20.003906 35.183594 18.5625 35.894531 C 12.839844 38.714844 9.28125 44.429688 9.28125 50.8125 C 9.28125 55.972656 11.617188 60.75 15.695312 63.925781 C 16.902344 64.875 17.417969 66.289062 17.105469 67.804688 C 16.871094 68.921875 16.757812 70.074219 16.757812 71.226562 C 16.757812 78.488281 21.398438 84.855469 28.316406 87.058594 C 29.492188 87.433594 30.308594 88.203125 30.761719 89.347656 C 32.816406 94.558594 37.222656 98.296875 42.582031 99.480469 C 42.316406 116.164062 40.9375 130.832031 38.382812 144.257812 C 36.046875 146.246094 34.007812 148.621094 32.378906 151.320312 C 31.8125 151.261719 31.25 151.234375 30.683594 151.234375 C 22.046875 151.234375 14.882812 157.753906 13.863281 166.136719 C 6.589844 166.480469 0.773438 172.515625 0.773438 179.890625 C 0.773438 181.164062 1.804688 182.199219 3.074219 182.199219 L 183.882812 182.199219 C 185.152344 182.199219 186.1875 181.164062 186.1875 179.890625 C 186.1875 172.296875 180.007812 166.121094 172.4375 166.121094 Z M 172.417969 166.117188 " fill-opacity="1" fill-rule="evenodd"/></g></svg>